<svg xmlns="http://www.w3.org/2000/svg" xmlns:xlink="http://www.w3.org/1999/xlink" viewBox="0 0 1848 1112"><defs><style>.cls-1{fill:#262626;}.cls-2{fill:#4c6df3;}.cls-3{fill:url(#linear-gradient);}.cls-4{fill:url(#linear-gradient-2);}.cls-5{fill:url(#linear-gradient-3);}</style><linearGradient id="linear-gradient" x1="492.77" y1="398.81" x2="651.05" y2="535.33" gradientUnits="userSpaceOnUse"><stop offset="0.35" stop-color="#b932cc"/><stop offset="0.87" stop-color="#4c6df3"/></linearGradient><linearGradient id="linear-gradient-2" x1="328.71" y1="580.82" x2="545.21" y2="404.52" gradientUnits="userSpaceOnUse"><stop offset="0" stop-color="#f7931e"/><stop offset="0.38" stop-color="#b932cc"/><stop offset="0.63" stop-color="#7e52e1"/><stop offset="0.86" stop-color="#4c6df3"/></linearGradient><linearGradient id="linear-gradient-3" x1="601.15" y1="768.77" x2="505.61" y2="535.69" gradientUnits="userSpaceOnUse"><stop offset="0" stop-color="#f7931e"/><stop offset="0.35" stop-color="#b932cc"/><stop offset="0.41" stop-color="#ae38d0"/><stop offset="0.52" stop-color="#9148da"/><stop offset="0.65" stop-color="#6261eb"/><stop offset="0.71" stop-color="#4c6df3"/></linearGradient></defs><g id="logos"><path class="cls-1" d="M720.24,443.83H852.33v21.54H743.21V549h90.46v21.17H743.21v98h-23Z"/><path class="cls-1" d="M873.22,668.18V443.83h23V646.64H1007.1v21.54Z"/><path class="cls-2" d="M1147.81,610c0-26.21-21.54-36.62-56.72-47-31.59-9.33-65.33-23-65.33-62.81,0-35.54,30.15-61,71.79-61,25.85,0,48.46,7.17,67.49,19.38l-8.26,20.1C1139.91,467.16,1118,460,1097.91,460c-33.74,0-49.89,17.94-49.89,38.4,0,24.77,22.25,34.1,56.71,44.87,32.31,9.69,65,24.41,65,65,0,37-30.87,64.61-75.74,64.61A134.82,134.82,0,0,1,1021.81,652l8.26-20.46c18,12.21,39.13,20.82,64.61,20.82C1125.91,652.38,1147.81,633.72,1147.81,610Z"/><path class="cls-2" d="M1200.56,466.09c-10,0-15.07-7.9-15.07-16.51,0-8.26,5-15.8,15.07-15.8s15.08,7.54,15.08,15.8C1215.64,458.19,1210.61,466.09,1200.56,466.09Zm-11.12,202.09V503.78l22.25-4.67V668.18Z"/><path class="cls-2" d="M1442.5,668.18V562.29c0-28.72-11.13-42-34.82-42-17.59,0-33.74,9.33-46.31,21.18.36,2.15.72,10.76.72,14.71v112h-22.25V562.29c0-28.72-11.13-42-34.82-42-17.23,0-33,7.9-45.59,19V668.18h-22.25V503.78l22.25-4.67v22.61c16.87-15.43,35.18-22.61,52-22.61,20.46,0,36.61,9,44.51,27.28,18.31-18.31,39.12-27.28,58.15-27.28,31.23,0,50.61,20.46,50.61,56.71V668.18Z"/><path class="cls-3" d="M651.91,486.89l-75.23-61.2-57.42,45.16.26.2L649.29,573.29a3,3,0,0,0,4.83-2.35V491.52A6,6,0,0,0,651.91,486.89Z"/><path class="cls-4" d="M523.08,382a6.07,6.07,0,0,0-7.65,0l-129,104.92a6,6,0,0,0-2.2,4.63V571a3,3,0,0,0,4.82,2.34L519.26,470.72l.15.13,57.41-45.16Z"/><path class="cls-5" d="M537.16,538.52h-36.1a1.24,1.24,0,0,0-1.24,1.24v36.09a1.24,1.24,0,0,0,1.24,1.24h36.1a1.24,1.24,0,0,0,1.24-1.24V539.76A1.24,1.24,0,0,0,537.16,538.52Zm77.14,38.57H578.21a1.24,1.24,0,0,0-1.24,1.24v36.1a1.24,1.24,0,0,0,1.24,1.24H614.3a1.24,1.24,0,0,0,1.24-1.24v-36.1A1.24,1.24,0,0,0,614.3,577.09ZM498.58,615.67H462.49a1.23,1.23,0,0,0-1.24,1.24V653a1.23,1.23,0,0,0,1.24,1.24h36.09a1.23,1.23,0,0,0,1.24-1.24V616.91A1.23,1.23,0,0,0,498.58,615.67Zm38.58,77.14h-36.1a1.25,1.25,0,0,0-1.24,1.24v36.1a1.25,1.25,0,0,0,1.24,1.24h36.1a1.25,1.25,0,0,0,1.24-1.24v-36.1A1.25,1.25,0,0,0,537.16,692.81Z"/></g></svg>